<svg width="280" height="246" viewBox="0 0 280 246" fill="none" xmlns="http://www.w3.org/2000/svg">
<circle cx="4" cy="4" r="4" fill="#94A7A0"/>
<circle cx="38" cy="4" r="4" fill="#94A7A0"/>
<circle cx="72" cy="4" r="4" fill="#94A7A0"/>
<circle cx="106" cy="4" r="4" fill="#94A7A0"/>
<circle cx="140" cy="4" r="4" fill="#94A7A0"/>
<circle cx="174" cy="4" r="4" fill="#94A7A0"/>
<circle cx="208" cy="4" r="4" fill="#94A7A0"/>
<circle cx="242" cy="4" r="4" fill="#94A7A0"/>
<circle cx="276" cy="4" r="4" fill="#94A7A0"/>
<circle cx="4" cy="72" r="4" fill="#94A7A0"/>
<circle cx="38" cy="72" r="4" fill="#94A7A0"/>
<circle cx="72" cy="72" r="4" fill="#94A7A0"/>
<circle cx="106" cy="72" r="4" fill="#94A7A0"/>
<circle cx="140" cy="72" r="4" fill="#94A7A0"/>
<circle cx="174" cy="72" r="4" fill="#94A7A0"/>
<circle cx="208" cy="72" r="4" fill="#94A7A0"/>
<circle cx="242" cy="72" r="4" fill="#94A7A0"/>
<circle cx="276" cy="72" r="4" fill="#94A7A0"/>
<circle cx="4" cy="140" r="4" fill="#94A7A0"/>
<circle cx="38" cy="140" r="4" fill="#94A7A0"/>
<circle cx="72" cy="140" r="4" fill="#94A7A0"/>
<circle cx="106" cy="140" r="4" fill="#94A7A0"/>
<circle cx="140" cy="140" r="4" fill="#94A7A0"/>
<circle cx="174" cy="140" r="4" fill="#94A7A0"/>
<circle cx="208" cy="140" r="4" fill="#94A7A0"/>
<circle cx="242" cy="140" r="4" fill="#94A7A0"/>
<circle cx="276" cy="140" r="4" fill="#94A7A0"/>
<circle cx="4" cy="208" r="4" fill="#94A7A0"/>
<circle cx="38" cy="208" r="4" fill="#94A7A0"/>
<circle cx="72" cy="208" r="4" fill="#94A7A0"/>
<circle cx="106" cy="208" r="4" fill="#94A7A0"/>
<circle cx="140" cy="208" r="4" fill="#94A7A0"/>
<circle cx="174" cy="208" r="4" fill="#94A7A0"/>
<circle cx="208" cy="208" r="4" fill="#94A7A0"/>
<circle cx="242" cy="208" r="4" fill="#94A7A0"/>
<circle cx="276" cy="208" r="4" fill="#94A7A0"/>
<circle cx="4" cy="38" r="4" fill="#94A7A0"/>
<circle cx="38" cy="38" r="4" fill="#94A7A0"/>
<circle cx="72" cy="38" r="4" fill="#94A7A0"/>
<circle cx="106" cy="38" r="4" fill="#94A7A0"/>
<circle cx="140" cy="38" r="4" fill="#94A7A0"/>
<circle cx="174" cy="38" r="4" fill="#94A7A0"/>
<circle cx="208" cy="38" r="4" fill="#94A7A0"/>
<circle cx="242" cy="38" r="4" fill="#94A7A0"/>
<circle cx="276" cy="38" r="4" fill="#94A7A0"/>
<circle cx="4" cy="106" r="4" fill="#94A7A0"/>
<circle cx="38" cy="106" r="4" fill="#94A7A0"/>
<circle cx="72" cy="106" r="4" fill="#94A7A0"/>
<circle cx="106" cy="106" r="4" fill="#94A7A0"/>
<circle cx="140" cy="106" r="4" fill="#94A7A0"/>
<circle cx="174" cy="106" r="4" fill="#94A7A0"/>
<circle cx="208" cy="106" r="4" fill="#94A7A0"/>
<circle cx="242" cy="106" r="4" fill="#94A7A0"/>
<circle cx="276" cy="106" r="4" fill="#94A7A0"/>
<circle cx="4" cy="174" r="4" fill="#94A7A0"/>
<circle cx="38" cy="174" r="4" fill="#94A7A0"/>
<circle cx="72" cy="174" r="4" fill="#94A7A0"/>
<circle cx="106" cy="174" r="4" fill="#94A7A0"/>
<circle cx="140" cy="174" r="4" fill="#94A7A0"/>
<circle cx="174" cy="174" r="4" fill="#94A7A0"/>
<circle cx="208" cy="174" r="4" fill="#94A7A0"/>
<circle cx="242" cy="174" r="4" fill="#94A7A0"/>
<circle cx="276" cy="174" r="4" fill="#94A7A0"/>
<circle cx="4" cy="242" r="4" fill="#94A7A0"/>
<circle cx="38" cy="242" r="4" fill="#94A7A0"/>
<circle cx="72" cy="242" r="4" fill="#94A7A0"/>
<circle cx="106" cy="242" r="4" fill="#94A7A0"/>
<circle cx="140" cy="242" r="4" fill="#94A7A0"/>
<circle cx="174" cy="242" r="4" fill="#94A7A0"/>
<circle cx="208" cy="242" r="4" fill="#94A7A0"/>
<circle cx="242" cy="242" r="4" fill="#94A7A0"/>
<circle cx="276" cy="242" r="4" fill="#94A7A0"/>
</svg>
