<svg width="94" height="28" viewBox="0 0 94 28" fill="none" xmlns="http://www.w3.org/2000/svg">
<path d="M0.582275 27.4762V1.29432H17.355V5.27017H5.32517V12.3782H16.2044V16.354H5.32517V27.4762H0.582275ZM32.7566 19.2177V7.83977H37.3845V27.4762H32.8973V23.9861H32.6927C32.2495 25.0855 31.5209 25.9847 30.5066 26.6836C29.501 27.3824 28.2609 27.7319 26.7865 27.7319C25.4995 27.7319 24.3618 27.4463 23.3731 26.8753C22.393 26.2958 21.626 25.4563 21.072 24.3569C20.518 23.2489 20.241 21.9108 20.241 20.3427V7.83977H24.8689V19.6267C24.8689 20.8711 25.2098 21.8597 25.8916 22.5927C26.5734 23.3256 27.4683 23.6921 28.5763 23.6921C29.2581 23.6921 29.9186 23.5259 30.5578 23.1935C31.197 22.8611 31.7211 22.3668 32.1302 21.7105C32.5478 21.0458 32.7566 20.2148 32.7566 19.2177ZM42.1434 27.4762V7.83977H46.6306V11.1125H46.8351C47.1931 9.97898 47.8067 9.1054 48.676 8.49176C49.5539 7.8696 50.5553 7.55852 51.6803 7.55852C51.936 7.55852 52.2215 7.5713 52.5368 7.59687C52.8607 7.61392 53.1292 7.64375 53.3422 7.68636V11.9435C53.1462 11.8753 52.8351 11.8157 52.409 11.7645C51.9914 11.7049 51.5865 11.675 51.1945 11.675C50.3508 11.675 49.5922 11.8583 48.9189 12.2248C48.2542 12.5827 47.73 13.0813 47.3465 13.7205C46.963 14.3597 46.7712 15.0969 46.7712 15.9321V27.4762H42.1434ZM61.0446 15.9705V27.4762H56.4168V7.83977H60.8401V11.1765H61.0702C61.5219 10.077 62.2421 9.20341 63.2307 8.55568C64.2279 7.90795 65.4594 7.58409 66.9253 7.58409C68.2804 7.58409 69.4608 7.87386 70.4665 8.45341C71.4807 9.03295 72.2648 9.87244 72.8188 10.9719C73.3813 12.0713 73.6583 13.4052 73.6498 14.9733V27.4762H69.0219V15.6892C69.0219 14.3767 68.681 13.3498 67.9992 12.6083C67.3259 11.8668 66.3927 11.4961 65.1995 11.4961C64.3898 11.4961 63.6696 11.675 63.039 12.033C62.4168 12.3824 61.9267 12.8895 61.5688 13.5543C61.2194 14.2191 61.0446 15.0245 61.0446 15.9705ZM78.3543 27.4762V7.83977H82.9821V27.4762H78.3543ZM80.681 5.05284C79.9481 5.05284 79.3174 4.80994 78.789 4.32414C78.2606 3.82983 77.9963 3.2375 77.9963 2.54716C77.9963 1.84829 78.2606 1.25596 78.789 0.770163C79.3174 0.275845 79.9481 0.0286865 80.681 0.0286865C81.4225 0.0286865 82.0532 0.275845 82.5731 0.770163C83.1015 1.25596 83.3657 1.84829 83.3657 2.54716C83.3657 3.2375 83.1015 3.82983 82.5731 4.32414C82.0532 4.80994 81.4225 5.05284 80.681 5.05284ZM90.5919 27.7574C89.8163 27.7574 89.1515 27.4847 88.5976 26.9392C88.0436 26.3938 87.7709 25.729 87.7794 24.9449C87.7709 24.1779 88.0436 23.5216 88.5976 22.9762C89.1515 22.4307 89.8163 22.158 90.5919 22.158C91.3419 22.158 91.9939 22.4307 92.5478 22.9762C93.1103 23.5216 93.3959 24.1779 93.4044 24.9449C93.3959 25.4648 93.2595 25.9378 92.9953 26.364C92.7396 26.7901 92.3987 27.131 91.9726 27.3867C91.5549 27.6338 91.0947 27.7574 90.5919 27.7574Z" fill="white"/>
</svg>
