<svg width="94" height="28" viewBox="0 0 94 28" fill="none" xmlns="http://www.w3.org/2000/svg">
<path d="M0 27.7161V1.27801H16.9368V5.29277H4.7893V12.4703H15.775V16.485H4.7893V27.7161H0ZM32.4891 19.3767V7.88751H37.1623V27.7161H32.6312V24.1918H32.4246C31.9771 25.302 31.2414 26.21 30.2171 26.9157C29.2017 27.6213 27.9495 27.9743 26.4606 27.9743C25.161 27.9743 24.0122 27.6859 23.0138 27.1093C22.0241 26.5241 21.2496 25.6764 20.6902 24.5662C20.1308 23.4474 19.8511 22.0962 19.8511 20.5127V7.88751H24.5243V19.7897C24.5243 21.0463 24.8685 22.0446 25.557 22.7848C26.2454 23.5248 27.1491 23.8949 28.2679 23.8949C28.9564 23.8949 29.6234 23.7271 30.2688 23.3914C30.9143 23.0558 31.4435 22.5567 31.8566 21.8939C32.2783 21.2227 32.4891 20.3836 32.4891 19.3767ZM41.9678 27.7161V7.88751H46.4989V11.1922H46.7054C47.0669 10.0477 47.6865 9.16553 48.5643 8.54588C49.4508 7.91764 50.462 7.60351 51.598 7.60351C51.8562 7.60351 52.1445 7.61642 52.4629 7.64224C52.79 7.65945 53.0611 7.68958 53.2762 7.7326V12.0314C53.0783 11.9625 52.7641 11.9023 52.3339 11.8506C51.9122 11.7904 51.5033 11.7602 51.1075 11.7602C50.2555 11.7602 49.4895 11.9453 48.8096 12.3154C48.1384 12.6768 47.6091 13.1803 47.2218 13.8257C46.8346 14.4712 46.6409 15.2156 46.6409 16.059V27.7161H41.9678ZM61.054 16.0978V27.7161H56.3809V7.88751H60.8475V11.2569H61.0798C61.5359 10.1466 62.2632 9.2645 63.2614 8.61043C64.2684 7.95636 65.512 7.62933 66.9922 7.62933C68.3606 7.62933 69.5525 7.92194 70.5681 8.50716C71.5922 9.09237 72.3839 9.94007 72.9434 11.0503C73.5114 12.1604 73.7911 13.5074 73.7825 15.0908V27.7161H69.1093V15.8137C69.1093 14.4884 68.7651 13.4514 68.0766 12.7027C67.3967 11.9539 66.4544 11.5796 65.2495 11.5796C64.4319 11.5796 63.7046 11.7602 63.0679 12.1217C62.4396 12.4746 61.9447 12.9866 61.5833 13.6579C61.2305 14.3292 61.054 15.1425 61.054 16.0978ZM78.533 27.7161V7.88751H83.2061V27.7161H78.533ZM80.8825 5.07331C80.1424 5.07331 79.5056 4.82804 78.972 4.33748C78.4384 3.83834 78.1715 3.24021 78.1715 2.54311C78.1715 1.83741 78.4384 1.23928 78.972 0.748732C79.5056 0.249577 80.1424 0 80.8825 0C81.6313 0 82.2681 0.249577 82.7931 0.748732C83.3267 1.23928 83.5935 1.83741 83.5935 2.54311C83.5935 3.24021 83.3267 3.83834 82.7931 4.33748C82.2681 4.82804 81.6313 5.07331 80.8825 5.07331ZM90.8904 28C90.1072 28 89.4359 27.7246 88.8766 27.1738C88.3172 26.6231 88.0418 25.9518 88.0504 25.16C88.0418 24.3855 88.3172 23.7228 88.8766 23.172C89.4359 22.6212 90.1072 22.3458 90.8904 22.3458C91.6477 22.3458 92.3061 22.6212 92.8654 23.172C93.4334 23.7228 93.7218 24.3855 93.7304 25.16C93.7218 25.685 93.5841 26.1626 93.3173 26.593C93.0591 27.0232 92.7149 27.3675 92.2846 27.6257C91.8628 27.8752 91.3981 28 90.8904 28Z" fill="#3B5D50"/>
</svg>
