<svg width="25" height="25" viewBox="0 0 25 25" fill="none" xmlns="http://www.w3.org/2000/svg">
<g clip-path="url(#clip0_0_1324)">
<mask id="mask0_0_1324" style="mask-type:luminance" maskUnits="userSpaceOnUse" x="0" y="0" width="25" height="25">
<path d="M24.1211 0.422119H0.121094V24.4221H24.1211V0.422119Z" fill="white"/>
</mask>
<g mask="url(#mask0_0_1324)">
<path d="M21.6742 4.4223C21.5833 4.41294 21.4917 4.41294 21.4008 4.4223H2.7342C2.61456 4.42415 2.49571 4.44209 2.38086 4.47564L12.0142 14.069L21.6742 4.4223Z" fill="white"/>
<path d="M22.6615 5.34888L12.9549 15.0156C12.705 15.2639 12.3671 15.4033 12.0149 15.4033C11.6626 15.4033 11.3247 15.2639 11.0749 15.0156L1.45486 5.42221C1.42529 5.5309 1.40961 5.64291 1.4082 5.75554V19.0889C1.4082 19.4425 1.54867 19.7817 1.79872 20.0317C2.04877 20.2818 2.38791 20.4222 2.74153 20.4222H21.4082C21.7618 20.4222 22.1009 20.2818 22.351 20.0317C22.601 19.7817 22.7415 19.4425 22.7415 19.0889V5.75554C22.7362 5.61665 22.7092 5.47943 22.6615 5.34888ZM3.65486 19.0889H2.7282V18.1356L7.57486 13.3289L8.51486 14.2689L3.65486 19.0889ZM21.3949 19.0889H20.4615L15.6015 14.2689L16.5415 13.3289L21.3882 18.1356L21.3949 19.0889Z" fill="white"/>
</g>
</g>
<defs>
<clipPath id="clip0_0_1324">
<rect width="25" height="25" fill="white"/>
</clipPath>
</defs>
</svg>
