<svg width="25" height="25" viewBox="0 0 25 25" fill="none" xmlns="http://www.w3.org/2000/svg">
<g clip-path="url(#clip0_0_1336)">
<path d="M16.9592 13.6802L16.5042 14.1332C16.5042 14.1332 15.4212 15.2092 12.4662 12.2712C9.5112 9.33315 10.5942 8.25715 10.5942 8.25715L10.8802 7.97115C11.5872 7.26915 11.6542 6.14115 11.0372 5.31715L9.77722 3.63415C9.0132 2.61415 7.5382 2.47915 6.6632 3.34915L5.0932 4.90915C4.6602 5.34115 4.3702 5.89915 4.4052 6.51915C4.4952 8.10615 5.2132 11.5192 9.2172 15.5012C13.4642 19.7232 17.4492 19.8912 19.0782 19.7392C19.5942 19.6912 20.0422 19.4292 20.4032 19.0692L21.8232 17.6572C22.7832 16.7042 22.5132 15.0692 21.2852 14.4022L19.3752 13.3632C18.5692 12.9262 17.5892 13.0542 16.9592 13.6802Z" fill="white"/>
</g>
<defs>
<clipPath id="clip0_0_1336">
<rect width="25" height="25" fill="white"/>
</clipPath>
</defs>
</svg>
